.
 
http://www.scenetime.com    -   SceneTime [ We been having it ] !!!


How come you press harder on a remote control when you know the battery is dead? so you better seed to get speed ;)

        Seed back for speed


...................................NFO:.................................................




             monte carlo 2011 R5 XVID AC3 - SPEEDY






AUDIO ENGLISH





IMDB: http://www.imdb.com/title/tt1067774/



General



Complete name                    : C:\Users\root\Desktop\monte carlo 2011 R5 XVID AC3 - SPEEDY\monte carlo 2011 R5 XVID AC3 - SPEEDY.avi
Format                           : AVI
Format/Info                      : Audio Video Interleave
Format profile                   : OpenDML
Format settings                  : rec
File size                        : 696 MiB
Duration                         : 1h 44mn
Overall bit rate                 : 933 Kbps





Video


ID                               : 0
Format                           : MPEG-4 Visual
Format profile                   : Advanced Simple@L5
Format settings, BVOP            : 2
Format settings, QPel            : No
Format settings, GMC             : No warppoints
Format settings, Matrix          : Default (H.263)
Codec ID                         : XVID
Codec ID/Hint                    : XviD
Duration                         : 1h 44mn
Bit rate                         : 499 Kbps
Width                            : 720 pixels
Height                           : 384 pixels
Display aspect ratio             : 1.875
Frame rate                       : 25.000 fps
Color space                      : YUV
Chroma subsampling               : 4:2:0
Bit depth                        : 8 bits
Scan type                        : Progressive
Compression mode                 : Lossy
Bits/(Pixel*Frame)               : 0.072
Stream size                      : 372 MiB (53%)





Audio


ID                               : 1
Format                           : AC-3
Format/Info                      : Audio Coding 3
Mode extension                   : CM (complete main)
Codec ID                         : 2000
Duration                         : 1h 40mn
Bit rate mode                    : Constant
Bit rate                         : 448 Kbps
Channel(s)                       : 2 channels
Channel positions                : Front: L R
Sampling rate                    : 44.1 KHz
Bit depth                        : 16 bits
Compression mode                 : Lossy
Stream size                      : 320 MiB (46%)
Alignment                        : Split accross interleaves
Interleave, duration             : 73 ms (1.82 video frames)
Interleave, preload duration     : 209 ms
Title                            : SPEEDY AUDIO



PLOT

 Storyline

A young woman, her uptight step sister and her best friend use their savings for a long anticipated dream trip to Paris, which turns out to be a big disappointment. When they decide to take a break from their lousy tour and duck into the lobby of a luxury hotel, one of them is mistaken for a spoiled British heiress. Before they get the chance to reveal their true identities they are wrapped up in misadventures during a vacation to Monte Carlo instead. Written by Fox 2000 Pictures   


Genres: Adventure | Comedy | Romance 



Director:
Thomas Bezucha
Writers:
Thomas Bezucha (screenplay), April Blair (screenplay), and 3 more credits 
Stars:
Selena Gomez, Leighton Meester and Katie Cassidy 




SCREENS


[img]http://leetleech.org/images/48565734647444191686.jpg[/img]
[img]http://leetleech.org/images/10367703478116494774.jpg[/img]
[img]http://leetleech.org/images/33423186194617972576.jpg[/img]
[img]http://leetleech.org/images/12421138658277746435.jpg[/img]



GREETS: 
 
 SPEEDY